Pedal_Stiffness1_states
version=1
nRows=64
nColumns=9
inDegrees=yes

# SIMM Motion File Header:
name Pedal_Stiffness1_states
datacolumns 9
datarows 64
otherdata 1
range 4.74794217 5.32667327
endheader
time	B_Pedal_tilt	G_Pedal_tilt	Tester_Sld-B_Pedal	Tester_Sld-G_Pedal	B_Pedal_tilt_u	G_Pedal_tilt_u	Tester_Sld-B_Pedal_u	Tester_Sld-G_Pedal_u
      4.74794217	      8.26696187	      0.00240178	      0.03091465	      0.00626242	     -2.86594112	     -3.06443959	     -0.01462197	     -0.01409480
      4.74946434	      8.26259953	     -0.00227737	      0.03089236	      0.00624090	     -2.86580832	     -3.08281831	     -0.01466887	     -0.01418656
      4.75077969	      8.25883006	     -0.00632123	      0.03087304	      0.00622218	     -2.86568865	     -3.04420984	     -0.01471081	     -0.01427149
      4.75209504	      8.25506075	     -0.01021502	      0.03085366	      0.00620335	     -2.86556988	     -2.85908469	     -0.01475354	     -0.01435824
      4.75380160	      8.25017062	     -0.01485123	      0.03082844	      0.00617876	     -2.86542425	     -2.57550533	     -0.01480939	     -0.01446546
      4.75667266	      8.24194418	     -0.02158450	      0.03078578	      0.00613700	     -2.86516408	     -2.12001423	     -0.01490800	     -0.01461060
      4.77102796	      8.20081966	     -0.03865967	      0.03056830	      0.00592990	     -2.86482836	     -0.43976286	     -0.01535477	     -0.01368697
      4.78040855	      8.17393900	     -0.04010131	      0.03042362	      0.00581277	     -2.86648112	      0.06276859	     -0.01547023	     -0.01101146
      4.78978915	      8.14703857	     -0.03849016	      0.03027839	      0.00572768	     -2.86897578	      0.24374975	     -0.01547581	     -0.00696303
      4.80123080	      8.11419189	     -0.03544221	      0.03010190	      0.00567946	     -2.87248240	      0.26642607	     -0.01536409	     -0.00151001
      4.81267246	      8.08131554	     -0.03267130	      0.02992784	      0.00569095	     -2.87781215	      0.21279575	     -0.01498814	      0.00336855
      4.82411411	      8.04790489	     -0.03058628	      0.02975972	      0.00575023	     -3.00364755	      0.15380117	     -0.01444392	      0.00660409
      4.83385262	      8.01712074	     -0.02927274	      0.02961891	      0.00581895	     -3.35499781	      0.11850398	     -0.01463290	      0.00712574
      4.84254900	      7.98612886	     -0.02833739	      0.02948751	      0.00587589	     -3.77692863	      0.09790021	     -0.01575236	      0.00568908
      4.85124539	      7.95141134	     -0.02755571	      0.02934215	      0.00591367	     -4.20874171	      0.08223706	     -0.01781658	      0.00280588
      4.86676457	      7.87995096	     -0.02650337	      0.02902829	      0.00590620	     -5.00851533	      0.05188691	     -0.02274338	     -0.00382507
      4.88228375	      7.79564893	     -0.02600760	      0.02863797	      0.00580436	     -5.86712291	      0.01053137	     -0.02736834	     -0.00869810
      4.89780293	      7.69746282	     -0.02618066	      0.02818697	      0.00566036	     -6.79894635	     -0.03120025	     -0.03048361	     -0.00910073
      4.91332211	      7.58423545	     -0.02687889	      0.02769926	      0.00554212	     -7.80417264	     -0.05517703	     -0.03226793	     -0.00563349
      4.93298679	      7.41759289	     -0.02799340	      0.02703649	      0.00549549	     -9.15512368	     -0.05207748	     -0.03574595	      0.00085460
      4.95265148	      7.22380071	     -0.02873763	      0.02626233	      0.00555557	    -10.56589817	     -0.02110833	     -0.04360790	      0.00439903
      4.96447122	      7.09370731	     -0.02886403	      0.02571222	      0.00560569	    -11.45287087	     -0.00095673	     -0.04953114	      0.00372505
      4.97917289	      6.91696082	     -0.02875096	      0.02492337	      0.00563840	    -12.59817156	      0.01379988	     -0.05813356	      0.00037421
      4.99177070	      6.75189082	     -0.02856946	      0.02413657	      0.00561935	    -13.61256076	      0.01285213	     -0.06706979	     -0.00340406
      5.00181268	      6.61106368	     -0.02848171	      0.02342044	      0.00557147	    -14.43576324	      0.00355228	     -0.07597619	     -0.00600626
      5.01185466	      6.46198257	     -0.02851469	      0.02259902	      0.00550218	    -15.25480932	     -0.01066147	     -0.08820943	     -0.00758638
      5.04265638	      5.95384101	     -0.02950146	      0.01905030	      0.00529164	    -17.73056865	     -0.04764522	     -0.14774837	     -0.00438514
      5.06355820	      5.56595440	     -0.03048218	      0.01536883	      0.00525764	    -19.38056628	     -0.04125086	     -0.20706327	      0.00098951
      5.08446002	      5.14382738	     -0.03107281	      0.01028777	      0.00530915	    -21.00692626	     -0.01388997	     -0.28166918	      0.00310265
      5.10536184	      4.68795215	     -0.03111113	      0.00348750	      0.00535034	    -22.60977572	      0.00694212	     -0.37156610	      0.00015015
      5.12654974	      4.19189806	     -0.03097052	     -0.00548820	      0.00530008	    -24.21041351	      0.00177202	     -0.47829984	     -0.00478260
      5.14773765	      3.66219055	     -0.03117961	     -0.01689182	      0.00516946	    -25.78635963	     -0.02283174	     -0.60074604	     -0.00678034
      5.17326688	      2.97999602	     -0.03208163	     -0.03432952	      0.00503195	    -27.65161749	     -0.04321641	     -0.76915246	     -0.00316913
      5.19460117	      2.37370252	     -0.03294331	     -0.05239838	      0.00501323	    -29.18137582	     -0.03361489	     -0.92738296	      0.00114877
      5.21593546	      1.73506232	     -0.03340912	     -0.07401292	      0.00505526	    -30.68383651	     -0.00971678	     -1.10154377	      0.00202726
      5.24305889	      0.87735537	     -0.03341712	     -0.10714713	      0.00505827	    -32.55310422	      0.00346495	     -1.34596476	     -0.00238987
      5.24943267	      0.66848969	     -0.03340166	     -0.11592021	      0.00503896	    -32.98552146	      0.00104063	     -1.40713794	     -0.00364988
      5.25377592	      0.52458822	     -0.03340284	     -0.12212382	      0.00502141	    -33.27865741	     -0.00172177	     -1.44963745	     -0.00441427
      5.25732169	      0.40616702	     -0.03341380	     -0.12732614	      0.00500477	    -33.51704584	     -0.00453685	     -1.48482293	     -0.00495326
      5.26039070	      0.30298695	     -0.03343191	     -0.13193028	      0.00498895	    -33.72270720	     -0.00730557	     -1.51563277	     -0.00534465
      5.26311205	      0.21096822	     -0.03345537	     -0.13609233	      0.00497401	    -33.90454446	     -0.00996325	     -1.54322813	     -0.00562610
      5.26628443	      0.10307473	     -0.03349212	     -0.14103949	      0.00495575	    -34.11589164	     -0.01323413	     -1.57572430	     -0.00586986
      5.26849569	      0.02747303	     -0.03352398	     -0.14454907	      0.00494264	    -34.26280691	     -0.01558335	     -1.59858363	     -0.00598334
      5.26912436	      0.00592010	     -0.03353398	     -0.14555610	      0.00493887	    -34.30451470	     -0.01625700	     -1.60511382	     -0.00600692
      5.26944024	     -0.00491942	     -0.03353917	     -0.14606365	      0.00493697	    -34.32049749	     -0.01659604	     -1.60840023	     -0.00601731
      5.26969891	     -0.01379352	     -0.03354350	     -0.14648004	      0.00493541	    -34.28698461	     -0.01687388	     -1.61109402	     -0.00602508
      5.26995758	     -0.02265692	     -0.03354790	     -0.14689713	      0.00493385	    -34.24242323	     -0.01715185	     -1.61379014	     -0.00603220
      5.27125093	     -0.06675671	     -0.03357099	     -0.14899306	      0.00492603	    -33.92637209	     -0.01854205	     -1.62730590	     -0.00605788
      5.27254173	     -0.11026287	     -0.03359581	     -0.15110233	      0.00491820	    -33.45670331	     -0.01992603	     -1.64085337	     -0.00606702
      5.27349124	     -0.14180447	     -0.03361521	     -0.15266508	      0.00491244	    -32.93338296	     -0.02093860	     -1.65085607	     -0.00606323
      5.27443174	     -0.17239181	     -0.03363538	     -0.15422237	      0.00490675	    -32.04918906	     -0.02193455	     -1.66079495	     -0.00605071
      5.27537224	     -0.20200558	     -0.03365647	     -0.15578903	      0.00490107	    -30.90364261	     -0.02292140	     -1.67076479	     -0.00602952
      5.27631273	     -0.23050257	     -0.03367849	     -0.15736508	      0.00489541	    -29.68814598	     -0.02389705	     -1.68076558	     -0.00599972
      5.28101522	     -0.35474054	     -0.03380195	     -0.16538722	      0.00486776	    -23.00293539	     -0.02853574	     -1.73123394	     -0.00572506
      5.29057120	     -0.50339436	     -0.03411272	     -0.18242972	      0.00481791	     -8.03396382	     -0.03596421	     -1.83617573	     -0.00459362
      5.29533233	     -0.52444438	     -0.03428965	     -0.19129900	      0.00479783	     -0.91902729	     -0.03814445	     -1.88965443	     -0.00382501
      5.29903712	     -0.51855408	     -0.03443272	     -0.19837772	      0.00478485	      3.99108634	     -0.03896791	     -1.93181676	     -0.00318239
      5.30274191	     -0.49565514	     -0.03457749	     -0.20561353	      0.00477428	      8.26002991	     -0.03906560	     -1.97445948	     -0.00252148
      5.30880436	     -0.42806017	     -0.03481129	     -0.21779760	      0.00476226	     13.70334482	     -0.03778085	     -2.04527551	     -0.00145103
      5.31883213	     -0.26385485	     -0.03516598	     -0.23890567	      0.00475580	     18.07726998	     -0.03236698	     -2.16523440	      0.00009505
      5.32169554	     -0.21170042	     -0.03525567	     -0.24515553	      0.00475659	     18.27721232	     -0.03024404	     -2.20013445	      0.00044692
      5.32335478	     -0.18142232	     -0.03530477	     -0.24882296	      0.00475748	     18.20020846	     -0.02892817	     -2.22048904	      0.00062755
      5.32501402	     -0.15131288	     -0.03535164	     -0.25252424	      0.00475866	     18.11024147	     -0.02756008	     -2.24093998	      0.00078983
      5.32667327	     -0.12123388	     -0.03539620	     -0.25625953	      0.00476009	     18.16638696	     -0.02614855	     -2.26148729	      0.00093286
